<svg width="449" height="131" viewBox="0 0 449 131" fill="none" xmlns="http://www.w3.org/2000/svg">
	<path d="M239.719 44.6693L224.919 72.4693V85.5693H214.319V72.7693L199.319 44.6693H209.919L219.619 62.1693L229.119 44.6693H239.719V44.6693Z" fill="#ffffff"/>
	<path d="M318.019 85.5693L312.119 74.2693H311.919H304.219V85.5693H293.619V44.6693H311.919C317.319 44.6693 321.519 45.9693 324.519 48.3693C327.519 50.8693 328.919 54.3693 328.919 58.8693C328.919 61.9693 328.319 64.5693 327.019 66.8693C325.719 69.1693 323.919 70.7693 321.619 72.0693L330.119 85.4693H318.019V85.5693ZM304.119 65.7693H311.919C314.119 65.7693 315.719 65.1693 316.919 64.0693C318.119 62.9693 318.719 61.3693 318.719 59.3693C318.719 57.3693 318.119 55.8693 316.919 54.8693C315.719 53.7693 314.019 53.2693 311.919 53.2693H304.119V65.7693Z" fill="#ffffff"/>
	<path d="M336.119 44.6693H371.219V53.5693H359.019V85.6693H348.419V53.5693H336.319L336.119 44.6693Z" fill="#ffffff"/>
	<path d="M391.919 74.8693C393.419 76.4693 395.319 77.2693 397.719 77.2693C400.019 77.2693 401.819 76.4693 403.319 74.9693C404.719 73.3693 405.519 71.3693 405.519 68.7693V44.6693H416.019V68.6693C416.019 72.1693 415.219 75.2693 413.719 77.9693C412.219 80.6693 410.119 82.6693 407.319 84.0693C404.519 85.5693 401.319 86.2693 397.519 86.2693C393.719 86.2693 390.519 85.5693 387.619 84.0693C384.719 82.5693 382.619 80.6693 381.119 77.9693C379.519 75.2693 378.819 72.2693 378.819 68.6693V44.6693H389.419V68.6693C389.619 71.2693 390.319 73.3693 391.919 74.8693Z" fill="#ffffff"/>
	<path d="M268.519 44.6693H257.619L240.019 85.5693H251.019L253.919 78.3693L257.019 70.1693L262.719 55.5693L268.319 70.1693L271.519 78.3693L274.219 85.5693H285.719L268.519 44.6693Z" fill="#ffffff"/>
	<path d="M130.919 64.2693V54.5693C131.019 53.9693 131.019 53.4693 130.819 52.8693C130.419 51.8693 129.519 51.1693 128.419 50.9693L99.519 45.7693L96.2189 49.5693L125.319 54.8693L94.319 91.5693C94.219 91.6693 94.019 91.6693 93.919 91.7693L37.7189 81.8693L68.819 45.2693C68.919 45.1693 69.119 45.1693 69.219 45.0693L82.319 47.3693L85.6189 43.4693L69.819 40.7693C68.219 40.4693 66.519 41.1693 65.519 42.3693L32.819 80.8693C32.219 81.6693 31.919 82.5693 32.019 83.3693V92.6693C32.019 94.5693 33.419 96.1693 35.319 96.4693L93.919 106.669C94.119 106.669 94.4189 106.769 94.6189 106.769C96.0189 106.769 97.5189 106.169 98.2189 105.069L129.419 68.2693C130.319 67.2693 130.919 65.5693 130.919 64.2693Z" fill="#0057FF"/>
	<path d="M171.719 36.5693V36.3693C171.719 36.2693 171.719 36.1693 171.619 36.0693C171.219 35.0693 170.319 34.3693 169.219 34.1693L110.719 24.0693C109.119 23.7693 107.419 24.4693 106.419 25.6693L73.7189 64.0693C73.0189 64.8693 72.8189 65.8693 73.0189 66.7693V75.7693C73.0189 77.6693 74.4189 79.2693 76.3189 79.5693L96.8189 83.0693H96.9189L107.819 70.2693L78.4189 65.1693L109.619 28.3693C109.719 28.2693 109.919 28.2693 110.019 28.1693L166.219 38.0693L135.119 74.6693C135.019 74.7693 134.819 74.7693 134.719 74.8693L129.819 73.9693L128.919 73.7693L117.719 86.7693L134.719 89.5693C134.919 89.5693 135.219 89.6693 135.419 89.6693C136.819 89.6693 138.319 89.0693 139.019 87.9693L170.119 51.1693C171.019 50.1693 171.619 48.4693 171.619 47.2693V37.5693C171.819 37.2693 171.819 36.9693 171.719 36.5693Z" fill="#0057FF"/>
</svg>	